<svg width="65" height="64" viewBox="0 0 65 64" fill="none" xmlns="http://www.w3.org/2000/svg">
<path fill-rule="evenodd" clip-rule="evenodd" d="M29.4672 11.4667C30.5983 9.51111 33.4261 9.51111 34.5572 11.4667L56.6141 49.6C57.7452 51.5556 56.3313 54 54.0691 54H36.0709L40.2128 47.1094C40.5899 46.4822 40.1186 45.6981 39.3645 45.6981L24.6599 45.6981C23.9058 45.6981 23.4345 46.4822 23.8116 47.1094L27.9535 54H9.95533C7.69309 54 6.27919 51.5556 7.41031 49.6L29.4672 11.4667ZM32.5212 26.9358L36.9326 35.5698C37.1588 36.0126 36.876 36.566 36.4236 36.566H27.6008C27.1484 36.566 26.8656 36.0126 27.0918 35.5698L31.5032 26.9358C31.7294 26.4931 32.295 26.4931 32.5212 26.9358Z" fill="url(#paint0_linear_297_248)"/>
<path d="M26.5562 9.5166C29.0682 5.49436 34.9562 5.49437 37.4683 9.5166L37.5874 9.71387L59.644 47.8477C62.1302 52.1462 59.0154 57.5 54.0688 57.5H9.95557C5.00902 57.5 1.8942 52.1462 4.38037 47.8477L26.437 9.71387L26.5562 9.5166ZM30.9536 52.1973L32.0122 53.958L33.0708 52.1973L34.8735 49.1982H29.1509L30.9536 52.1973Z" stroke="white" stroke-width="7"/>
<defs>
<linearGradient id="paint0_linear_297_248" x1="32.0123" y1="7.06667" x2="32.0123" y2="69.6444" gradientUnits="userSpaceOnUse">
<stop stop-color="#4F3AF5"/>
<stop offset="1" stop-color="#990EFC"/>
</linearGradient>
</defs>
</svg>