<svg width="64" height="64" viewBox="0 0 64 64" fill="none" xmlns="http://www.w3.org/2000/svg">
<path fill-rule="evenodd" clip-rule="evenodd" d="M28.946 7.76666C30.3033 5.41111 33.6967 5.41111 35.054 7.76667L61.5223 53.7C62.8796 56.0556 61.1829 59 58.4683 59H36.8705L41.8408 50.7C42.2932 49.9444 41.7277 49 40.8228 49L23.1772 49C22.2724 49 21.7068 49.9444 22.1592 50.7L27.1295 59H5.53175C2.81705 59 1.12038 56.0556 2.47772 53.7L28.946 7.76666ZM32.6108 26.4L37.9045 36.8C38.1759 37.3333 37.8366 38 37.2937 38H26.7063C26.1634 38 25.8241 37.3333 26.0955 36.8L31.3892 26.4C31.6607 25.8667 32.3393 25.8667 32.6108 26.4Z" fill="url(#paint0_linear_297_248)"/>
<defs>
<linearGradient id="paint0_linear_297_248" x1="32.0001" y1="2.46667" x2="32.0001" y2="77.8444" gradientUnits="userSpaceOnUse">
<stop stop-color="#4F3AF5"/>
<stop offset="1" stop-color="#990EFC"/>
</linearGradient>
</defs>
</svg>
