<svg width="64" height="64" viewBox="0 0 64 64" fill="none" xmlns="http://www.w3.org/2000/svg">
<path fill-rule="evenodd" clip-rule="evenodd" d="M28.9484 7.76666C30.3058 5.41111 33.6991 5.41111 35.0565 7.76667L61.5247 53.7C62.8821 56.0556 61.1854 59 58.4707 59H36.8729L41.8432 50.7C42.2956 49.9444 41.7301 49 40.8252 49L23.1797 49C22.2748 49 21.7092 49.9444 22.1617 50.7L27.132 59H5.53419C2.8195 59 1.12282 56.0556 2.48016 53.7L28.9484 7.76666ZM32.6132 26.4L37.9069 36.8C38.1784 37.3333 37.839 38 37.2961 38H26.7088C26.1659 38 25.8265 37.3333 26.098 36.8L31.3916 26.4C31.6631 25.8667 32.3418 25.8667 32.6132 26.4Z" fill="url(#paint0_linear_297_248)"/>
<path d="M28.0815 7.26758C29.8236 4.24438 34.1813 4.24439 35.9233 7.26758L62.3911 53.2012C64.1306 56.2204 61.9576 60 58.4702 60H35.1089L36.0151 58.4863L40.9849 50.1865C41.0011 50.1594 41.0026 50.143 41.0024 50.1338C41.0022 50.1212 40.9979 50.1019 40.9849 50.0801C40.9718 50.0584 40.9524 50.0384 40.9282 50.0244C40.9062 50.0117 40.8734 50 40.8247 50H23.1802C23.1315 50 23.0987 50.0117 23.0767 50.0244C23.0525 50.0384 23.0331 50.0584 23.02 50.0801C23.0069 50.1019 23.0027 50.1212 23.0024 50.1338C23.0023 50.143 23.0038 50.1594 23.02 50.1865L27.9897 58.4863L28.896 60H5.53467C2.04731 60 -0.125726 56.2204 1.61377 53.2012L28.0815 7.26758ZM27.1177 37H36.8872L32.0024 27.4033L27.1177 37Z" stroke="url(#paint1_linear_297_248)" stroke-width="2"/>
<defs>
<linearGradient id="paint0_linear_297_248" x1="32.0026" y1="2.46667" x2="32.0026" y2="77.8444" gradientUnits="userSpaceOnUse">
<stop stop-color="#4F3AF5"/>
<stop offset="1" stop-color="#990EFC"/>
</linearGradient>
<linearGradient id="paint1_linear_297_248" x1="31.1796" y1="37.7333" x2="37.2109" y2="26.5923" gradientUnits="userSpaceOnUse">
<stop stop-color="white" stop-opacity="0.5"/>
<stop offset="1" stop-color="white" stop-opacity="0.2"/>
</linearGradient>
</defs>
</svg>
